<svg width="1280" height="360" viewBox="0 0 1280 360" fill="none" xmlns="http://www.w3.org/2000/svg">
  <defs>
    <linearGradient id="bg" x1="0" y1="0" x2="1280" y2="360" gradientUnits="userSpaceOnUse">
      <stop stop-color="#0B0F14"/>
      <stop offset="1" stop-color="#121922"/>
    </linearGradient>
    <radialGradient id="glowA" cx="0" cy="0" r="1" gradientUnits="userSpaceOnUse" gradientTransform="translate(1082 62) rotate(137) scale(460 620)">
      <stop stop-color="#7EE7FF" stop-opacity="0.28"/>
      <stop offset="1" stop-color="#7EE7FF" stop-opacity="0"/>
    </radialGradient>
    <radialGradient id="glowB" cx="0" cy="0" r="1" gradientUnits="userSpaceOnUse" gradientTransform="translate(938 280) rotate(210) scale(430 330)">
      <stop stop-color="#D98645" stop-opacity="0.22"/>
      <stop offset="1" stop-color="#D98645" stop-opacity="0"/>
    </radialGradient>
    <pattern id="grid" width="36" height="36" patternUnits="userSpaceOnUse">
      <path d="M 36 0 L 0 0 0 36" fill="none" stroke="rgba(255,255,255,0.05)" stroke-width="1"/>
    </pattern>
  </defs>
  <rect width="1280" height="360" fill="url(#bg)"/>
  <rect width="1280" height="360" fill="url(#grid)" opacity="0.55"/>
  <rect width="1280" height="360" fill="url(#glowA)"/>
  <rect width="1280" height="360" fill="url(#glowB)"/>

  <path d="M86 34H286" stroke="#7EE7FF" stroke-opacity="0.72" stroke-width="2"/>
  <text x="86" y="72" fill="#9CA8B6" font-family="Arial, sans-serif" font-size="20" letter-spacing="5">LOCQUELIU / CREATIVE SYSTEMS</text>

  <rect x="1024" y="28" width="170" height="40" rx="20" fill="rgba(255,255,255,0.04)" stroke="rgba(255,255,255,0.08)"/>
  <circle cx="1052" cy="48" r="7" fill="#7EE7FF"/>
  <text x="1070" y="55" fill="#D7DEE7" font-family="Arial, sans-serif" font-size="18" letter-spacing="3">PROFILE</text>

  <text x="86" y="154" font-family="Georgia, serif" font-size="76" font-weight="700">
    <tspan x="86" dy="0" fill="#7EE7FF">Locqueliu</tspan>
  </text>

  <text x="90" y="282" fill="#A9B3BF" font-family="Arial, sans-serif" font-size="24">Creative systems, embedded interaction, and AI-assisted tooling.</text>

  <rect x="86" y="274" width="165" height="42" rx="21" fill="rgba(255,255,255,0.03)" stroke="rgba(126,231,255,0.22)"/>
<text x="104" y="301" fill="#C6D0DC" font-family="Arial, sans-serif" font-size="18" letter-spacing="1">Design + Code</text>
  <rect x="265" y="274" width="121" height="42" rx="21" fill="rgba(255,255,255,0.03)" stroke="rgba(126,231,255,0.22)"/>
<text x="283" y="301" fill="#C6D0DC" font-family="Arial, sans-serif" font-size="18" letter-spacing="1">Workflows</text>
  <rect x="400" y="274" width="110" height="42" rx="21" fill="rgba(255,255,255,0.03)" stroke="rgba(126,231,255,0.22)"/>
<text x="418" y="301" fill="#C6D0DC" font-family="Arial, sans-serif" font-size="18" letter-spacing="1">Embedded</text>

  <rect x="786" y="56" width="372" height="222" rx="34" fill="rgba(255,255,255,0.04)" stroke="rgba(126,231,255,0.26)"/>
  <rect x="724" y="102" width="336" height="170" rx="28" fill="rgba(255,255,255,0.035)" stroke="rgba(255,255,255,0.09)"/>
  <rect x="930" y="146" width="234" height="116" rx="24" fill="rgba(217,134,69,0.08)" stroke="rgba(217,134,69,0.24)"/>

  <path d="M760 134H846C876 134 904 162 904 192V232" stroke="#7EE7FF" stroke-width="3" stroke-linecap="round"/>
  <path d="M1106 228H1160C1190 228 1212 250 1212 280V330" stroke="#D98645" stroke-width="3" stroke-linecap="round"/>
  <path d="M980 176H1068" stroke="rgba(255,255,255,0.22)" stroke-width="2"/>
  <path d="M980 208H1124" stroke="rgba(255,255,255,0.18)" stroke-width="2"/>
  <path d="M980 240H1092" stroke="rgba(255,255,255,0.12)" stroke-width="2"/>
  <circle cx="1118" cy="154" r="6" fill="#7EE7FF" fill-opacity="0.9"/>
  <circle cx="1008" cy="324" r="6" fill="#D98645" fill-opacity="0.9"/>
</svg>